# xmcd
#
# Track frame offsets: 
#        150
#        18814
#        45056
#        71071
#        94367
#        116416
#        135678
#        150677
#        177231
#        195294
#        216890
#        234345
#        248703
#        266860
#        290224
#
# Disc length: 4253 seconds
#
# Revision: 0
# Processed by: cddbd v1.5.2PL0 Copyright (c) Steve Scherf et al.
# Submitted via: ExactAudioCopy v0.99pb3
#
DISCID=d0109b0f
DTITLE=Studebaker John's Maxwell Street Kings - That's The Way You Do
DYEAR=2010
DGENRE=Blues
TTITLE0=That's The Way You Do
TTITLE1=Side By Side
TTITLE2=Fine Cadillac
TTITLE3=Headin' Down To Maxwell Street
TTITLE4=If You Would Love Me
TTITLE5=B-Line
TTITLE6=So In Love With You
TTITLE7=Son Of A Seventh Son
TTITLE8=Low Down Woman
TTITLE9=When Your Mule Won't Ride
TTITLE10=Shake it
TTITLE11=I'll Always Be The Same
TTITLE12=A Fool Like Me
TTITLE13=Steppin' Stone
TTITLE14=Taylor Street Boogie
EXTD=
EXTT0=
EXTT1=
EXTT2=
EXTT3=
EXTT4=
EXTT5=
EXTT6=
EXTT7=
EXTT8=
EXTT9=
EXTT10=
EXTT11=
EXTT12=
EXTT13=
EXTT14=
PLAYORDER=
